<svg width="759" height="701" viewBox="0 0 759 701" fill="none" xmlns="http://www.w3.org/2000/svg">
<path d="M595.628 694.486C630.731 694.486 669.829 680.466 708.662 656.793C747.513 633.108 786.207 599.697 820.529 560.75C889.134 482.902 940.5 382.672 940.5 293.425C940.5 204.339 910.535 131.319 857.283 80.5733C804.039 29.8355 727.655 1.5 635.056 1.5C588.5 1.5 525.636 25.4034 457.686 63.7997C389.675 102.231 316.355 155.305 248.824 213.916C181.295 272.525 119.511 336.708 74.5955 397.375C29.735 457.968 1.5 515.317 1.5 560.203C1.5 605.312 27.4982 636.228 68.9645 657.162C110.363 678.061 167.367 689.132 229.962 694.642C316.955 702.3 415.175 699.237 497.916 696.657C534.218 695.525 567.54 694.486 595.628 694.486Z" stroke="#810CA8" stroke-opacity="0.25" stroke-width="3"/>
</svg>
